<svg fill="#C82606" xmlns="http://www.w3.org/2000/svg" xmlns:xlink="http://www.w3.org/1999/xlink" version="1.1" x="0px" y="0px" viewBox="0 0 1000 1000" style="enable-background:new 0 0 1000 1000;" xml:space="preserve"><path d="M869.7,256c-19.5-50.2-52.7-87.2-96.2-106.8c-34.2-15.5-73.9-19.4-113.2-11.5c-9.9-7.5-25-17.2-43.5-24.3  c-39.2-15-77.5-12.3-111.8,7.6c-8.2-4.3-18.6-8.9-30.8-12.2c-31.6-8.6-62.2-5.5-89.8,8.8c-8.3-4.4-19.1-9.2-31.7-12.6  c-40-10.8-78.4-3-111.2,22.6c-26.8,20.9-64,56.3-88.9,105.7c-10.7,21.3-18,42.9-21.9,64.7c-28.3,51.3-28.3,110.6,0,167.8  c7.8,15.8,14.8,35.6,22.3,56.5c25.9,72.8,60.8,171.1,174.4,231.2l-8.3,71.4c-1.1,9.7,2.7,19.2,9.9,25.5c1.6,1.4,3.5,2.7,5.4,3.8  c2.6,1.4,64.7,34.1,154.5,43.3c52.9,5.4,104.8,1.6,154-11.4c61.6-16.2,119.1-46.8,170.9-90.9c10.7-9.1,13.4-24.5,6.5-36.8  l-39.3-69.6c15.5-23.1,44.2-69.6,68.4-128.6c20.3-49.6,33.3-97.8,38.4-143.4C894.6,358.5,888.4,304.4,869.7,256z M516.5,185.2  c2.4-2.3,4.9-4.4,7.3-6.3c20.2-15.8,41.6-20.1,65.3-13c-24.1,14.9-45.2,34.3-61.9,57.4c-21.4,29.5-34.4,63-38.5,98.8  c-12-11.7-28.6-22.3-49.5-31.5C454.8,254.6,481.5,218,516.5,185.2z M509.4,450.8c-9.1,1.2-19.3,1.3-29.3-1.2  c7.5-8.8,13.6-18.4,18.4-28.1C501.5,432,505.1,441.8,509.4,450.8z M399,177.6c17-13.2,35.1-17.6,55.5-13.2  c-30.9,33.2-54.9,69.4-70.2,105.4c-13.5-5.3-32.3-12.6-50.7-19.3C353.2,217.4,379.5,192.9,399,177.6z M277.6,173.7  c16.3-12.7,33.6-17.2,53-13.7c-18.4,18.4-37.5,41.8-52.7,69.9c-13.2-5.6-28.6-11.6-46.5-10.9C247,199.6,263.9,184.4,277.6,173.7z   M829.8,409.5c-4.4,40-15.9,82.8-34,127.2c-31.4,77-72.3,132.3-72.7,132.9c-7,9.3-7.8,21.9-2,32l36.1,64  c-39.6,30-82.5,51.3-127.8,63.4c-42.1,11.3-86.6,14.8-132.2,10.4c-52.5-5.1-94.8-19.6-117.3-28.9l8.2-70.8  c1.1-9.8-2.7-19.3-9.9-25.5c-2.1-1.8-4.5-3.4-7.1-4.6C264.6,661.2,234.7,577,208.3,502.7c-8-22.6-15.6-44-25-62.9  c-20.7-41.9-20.5-81.3,0.8-117c6.5-11,15-21.4,25.1-30.8c10-9.3,18.2-14.2,24.4-14.4c6.1-0.2,14.3,3.3,24.6,7.8  c7.4,3.2,15.8,6.8,25.5,9.9c26.1,8.3,63.9,23,84.1,31.1l22.2,8.1c0.9,0.4,1.8,0.7,2.7,1.1c31.3,10.3,47.1,21.1,54.6,28.3  c5.9,5.8,5.2,11.9,5.1,12.7c-3.6,17.9-14.6,39.3-36,50.2c-22.9,11.7-55.8,10.5-95.2-3.5c-15.3-5.4-32,2.6-37.4,17.9  c-3.1,8.8-1.8,18,2.8,25.4c3.9,6.7,10.4,11.9,18.6,13.8c1.1,0.3,108.7,26.8,168.6,146.3c5.1,10.3,15.5,16.2,26.2,16.2  c4.4,0,8.9-1,13.1-3.1c14.5-7.3,20.3-24.9,13.1-39.4c-20.3-40.6-45.3-72.2-70.7-96.8c32.8,11.2,67.3,6.8,92.9-1.7  c34.7,27.2,80.7,30.6,120,7.3c20.9-12.4,37.4-31.3,46.5-53.3c10.1-24.5,10.5-51.2,1.2-77.1c-5.5-15.2-22.3-23.1-37.5-17.7  c-15.2,5.5-23.2,22.3-17.7,37.5c10.2,28.5-5.6,50.2-22.3,60.1c-7.5,4.4-32.1,16.2-55.8-4.5c-1.9-1.6-3.7-3.5-5.6-5.5  c-0.4-0.4-0.7-0.9-1.1-1.3c-14.4-16.7-24.3-43.8-28.6-78.3c-5.2-41.1,4.2-79.6,27.3-111.4c20.9-28.8,51.3-50,85.7-59.8c0,0,0,0,0,0  c0.1,0,0.2-0.1,0.4-0.1c53.8-15.1,122.6-2.2,154.2,79.4C830.2,316.4,835.2,361,829.8,409.5z"></path></svg>