<svg fill="#C82606" xmlns:dc="http://purl.org/dc/elements/1.1/" xmlns:cc="http://creativecommons.org/ns#" xmlns:rdf="http://www.w3.org/1999/02/22-rdf-syntax-ns#" xmlns:svg="http://www.w3.org/2000/svg" xmlns="http://www.w3.org/2000/svg" xmlns:sodipodi="http://sodipodi.sourceforge.net/DTD/sodipodi-0.dtd" xmlns:inkscape="http://www.inkscape.org/namespaces/inkscape" viewBox="0 0 32 32.000001" version="1.1" x="0px" y="0px"><g transform="translate(0,-1020.3622)"><path style="" d="m 6.5,1040.958 0,3.2324 a 2,2 0 0 0 0.82422,1.6172 l 0.0586,0.043 a 3.9999999,3.9999999 0 0 0 3.97657,0.4199 l 4.64062,-2.0625 4.64062,2.0625 a 4,4 0 0 0 3.97657,-0.4199 l 0.0586,-0.043 a 2,2 0 0 0 0.82422,-1.6172 l 0,-3.2324 -2.90039,0.5351 a 36.428572,36.428572 0 0 1 -13.19922,0 z m 1.75,2 4.75,0.75 -3.5,1.5 z m 15.5,0 -1.25,2.25 -3.5,-1.5 z" fill="#C82606" fill-rule="evenodd" stroke="none"></path><path style="" d="m 11.07422,1026.1103 c -0.57285,-0.024 -1.1266,0.3422 -1.28906,0.9414 l -2.24414,7.1934 16.99023,0 -2.31641,-7.1934 c -0.22159,-0.7941 -1.13177,-1.1738 -1.85546,-0.7734 l -2.42774,1.4746 c -1.20085,0.6648 -2.66244,0.6648 -3.86328,0 l -2.42774,-1.4825 c -0.18147,-0.1004 -0.37545,-0.1521 -0.5664,-0.1601 z" fill="#C82606" fill-rule="evenodd" stroke="none"></path><path style="" d="m 7.23047,1035.2412 -0.74219,2.3769 -4.01367,0 a 0.50173232,0.4983732 0 1 0 0,0.9961 l 27.05078,0 a 0.50173232,0.4983732 0 1 0 0,-0.9961 l -3.9082,0 -0.76563,-2.3769 z" fill="#C82606" fill-rule="evenodd" stroke="none"></path></g></svg>