<svg fill="#C82606" xmlns="http://www.w3.org/2000/svg" xmlns:xlink="http://www.w3.org/1999/xlink" version="1.1" x="0px" y="0px" viewBox="0 0 100 100" style="enable-background:new 0 0 100 100;" xml:space="preserve"><path d="M43.9,90H17.4l-1.8-7.9c-1.4-6.9,3.1-13.6,10-15s13.6,3.1,15,10L43.9,90z M21.6,39.6c-6.8-0.4-12.7,3.8-14,10.2  c-0.3,1-0.4,2.1-0.4,3.3c0,0.3,0,0.6,0,0.9c-0.1,0.5-0.3,1.1-0.6,1.6c-1.8,1.8-6.4-0.5-5.3,0.9c3.1,6.3,11.1,9.1,16.8,9.9  c0.6,0.1,1.3,0,1.9,0.1c0.1,0,0.2,0,0.2,0c7.4,0.4,13.8-5.3,14.2-12.7C34.7,46.4,29,40,21.6,39.6z"></path><path d="M75.1,56.2c-5.2,0.9-9.8,5.1-10.5,10.6c-0.4,3.8,1.4,8.9,2.9,12.9c1,3,3.6,10.3,3.6,10.3s27,0,26.9,0  c-1.5-7-3.6-17.6-8.1-24.8c-2.3-3.8-5.4-7.3-9.7-8.6C78.7,56,76.9,55.9,75.1,56.2z M81.9,41.5c0,8.1-6.6,14.7-14.7,14.7  s-14.7-6.6-14.7-14.7S59,26.8,67.1,26.8S81.9,33.4,81.9,41.5z"></path><path d="M39.8,51l-0.6-2.1l10.3-2.8l0.6,2.1L39.8,51z M49,41.1l-7.7-0.3l-0.1,2.1l7.7,0.3L49,41.1z M52.5,52.2l-1.4-1.6l-5.8,5.1  l1.4,1.6L52.5,52.2z"></path></svg>