<svg fill="#C82606" xmlns="http://www.w3.org/2000/svg" xmlns:xlink="http://www.w3.org/1999/xlink" version="1.1" x="0px" y="0px" viewBox="0 0 100 100" enable-background="new 0 0 100 100" xml:space="preserve"><path fill="#C82606" d="M50.143,67.552l1.231-5.274l-3.78,1.758l-2.548-4.615l-1.523,4.887l-4.443-2.87l1.478,5.011l-4.259,0.18  l2.487,2.245l-3.805,3.029l4.878,0.791l0.088,4.087l3.516-2.11l-2.373,0.176l-0.176-2.945l-3.296-0.527l2.87-2.06l-1.551-1.895  l2.857,0.017l-0.865-3.479l3.19,2.014l1.095-3.443l1.527,3.365l3.051-1.068L50.143,67.552z"></path><path fill="#C82606" d="M74.237,81.73c-0.123-0.015-0.251-0.035-0.351-0.109c-0.163-0.121-0.2-0.345-0.228-0.545  c-0.536-3.868-2.337-7.551-5.061-10.349c2.064-3.567,6.959-4.895,10.493-2.661c2.824,1.785,4.151,5.623,3.033,8.772  c-1.111,3.128-4.524,5.261-7.821,4.9C74.281,81.735,74.259,81.732,74.237,81.73z M43.684,74.125  c-0.812-0.719-1.295-1.716-1.361-2.809c-0.066-1.092,0.294-2.141,1.013-2.953c0.771-0.871,1.886-1.37,3.06-1.37  c1,0,1.96,0.363,2.703,1.021l10.418,9.23l8.318-4.407c0.588,0.587,1.371,1.513,2.083,2.787c0.028,0.05,0.057,0.091,0.084,0.142  c0.63,1.162,1.086,2.413,1.364,3.734c0.092,0.441,0.165,0.889,0.218,1.345l-10.521,4.967c-0.537,0.298-1.133,0.487-1.759,0.526  c-0.085,0.005-0.167,0.027-0.253,0.027c-1,0-1.959-0.362-2.703-1.021L43.684,74.125z M73.429,63.199  c-4.868,0.817-9.131,4.79-9.786,9.881c1.044-0.446,2.041-1.001,2.969-1.653c-0.278-0.291-0.137-0.768,0.042-1.128  c1.535-3.082,4.878-5.178,8.321-5.207s6.825,2.018,8.387,5.086c1.561,3.069,1.221,7.015-0.851,9.764s-5.781,4.162-9.155,3.476  c-0.398-0.081-0.801-0.193-1.13-0.432c-0.135-0.098-0.266-0.221-0.432-0.238c-0.13-0.014-0.256,0.041-0.375,0.094  c-1.686,0.754-3.372,1.507-5.058,2.261c0.963,2.808,3.393,9.577,3.393,9.577s25.183,0,25.164,0.044  c-1.062-7.852-3.382-16.423-7.526-23.176c-2.154-3.51-5.077-6.838-9.016-8.041C76.733,63.005,75.048,62.927,73.429,63.199z"></path><path fill="#C82606" d="M41.118,82.684c-1.287-6.415-7.589-10.61-14.004-9.323s-10.61,7.589-9.323,14.004l1.726,7.38H44.24  L41.118,82.684z"></path><path fill="#C82606" d="M22.948,47.371c-6.337-0.343-11.886,3.591-13.09,9.559c-0.243,0.974-0.386,1.988-0.386,3.037  c0,0.298,0.024,0.59,0.045,0.883c-0.091,0.484-0.258,1-0.572,1.535c-1.638,1.687-5.977-0.44-4.95,0.801  c2.928,5.88,10.343,8.473,15.648,9.218c0.518,0.103,1.207,0.037,1.747,0.075c0.127,0.014,0.2,0.021,0.2,0.021  c6.939,0.375,12.868-4.946,13.243-11.885C35.208,53.675,29.887,47.746,22.948,47.371z"></path><circle fill="#C82606" cx="65.583" cy="48.917" r="13.75"></circle></svg>