<svg fill="#C82606" xmlns="http://www.w3.org/2000/svg" xmlns:xlink="http://www.w3.org/1999/xlink" version="1.1" x="0px" y="0px" viewBox="0 0 144.083 144" enable-background="new 0 0 144.083 144" xml:space="preserve"><path d="M111.706,67.261c-3.055-3.055-6.745-5.242-10.771-6.444c0.584-1.97,0.899-4.029,0.899-6.142c0-5.81-2.262-11.271-6.37-15.38  s-9.57-6.371-15.38-6.371s-11.271,2.263-15.379,6.371L31.232,72.768c-8.48,8.479-8.48,22.278,0.001,30.759  c4.107,4.108,9.569,6.37,15.379,6.37s11.272-2.262,15.38-6.37l7.977-7.978c1.27,2.953,3.097,5.669,5.439,8.01  c4.848,4.848,11.293,7.518,18.148,7.518c6.856,0,13.302-2.67,18.148-7.518C121.712,93.552,121.712,77.269,111.706,67.261z   M109.405,97.017L81.949,69.559c3.351-2.464,7.371-3.815,11.608-3.815c5.253,0,10.191,2.046,13.906,5.76  C114.408,78.449,115.041,89.328,109.405,97.017z M68.947,43.537c2.975-2.975,6.93-4.613,11.137-4.613s8.162,1.639,11.138,4.613  c2.975,2.976,4.612,6.931,4.612,11.138c0,1.769-0.299,3.487-0.86,5.109c-0.47-0.025-0.941-0.041-1.416-0.041  c-6.855,0-13.301,2.67-18.148,7.518c-2.199,2.198-3.945,4.729-5.202,7.474L53.978,58.506L68.947,43.537z"></path></svg>