<svg fill="#C82606" xmlns:dc="http://purl.org/dc/elements/1.1/" xmlns:cc="http://creativecommons.org/ns#" xmlns:rdf="http://www.w3.org/1999/02/22-rdf-syntax-ns#" xmlns:svg="http://www.w3.org/2000/svg" xmlns="http://www.w3.org/2000/svg" xmlns:sodipodi="http://sodipodi.sourceforge.net/DTD/sodipodi-0.dtd" xmlns:inkscape="http://www.inkscape.org/namespaces/inkscape" version="1.1" x="0px" y="0px" viewBox="0 0 100 100"><g transform="translate(0,-952.36218)"><path style="opacity:1;color:#000000;fill:#C82606;stroke:none;stroke-width:4;stroke-linecap:round;stroke-linejoin:round;stroke-miterlimit:4;stroke-opacity:1;stroke-dasharray:none;stroke-dashoffset:0;marker:none;visibility:visible;display:inline;overflow:visible;enable-background:accumulate" d="m 85.999962,977.36211 c 3.323999,0 6,2.676 6,6 0,3.324 -2.676001,6 -6,6 3.323999,0 6,2.676 6,6 0,3.324 -2.676001,5.99999 -6,5.99999 3.323999,0 6,2.676 6,6 0,3.324 -2.676001,6 -6,6 l -28,0 5.017167,15.0225 c 0.474743,1.4215 0.964529,2.6255 0.982833,3.9775 0.05233,3.8656 -3.134006,7 -7,7 -2.798654,0 -5.211499,-1.6364 -6.331159,-4.0085 -0.154673,-0.3277 -16.793841,-28.9915 -16.793841,-28.9915 l -25.8750001,0 0,-33.99999 17.0000001,0 c 14.707868,0 24.807959,-7 43,-7 l 12,0 c 3.323999,0 6,2.676 6,6 0,3.324 -1.431445,5.09439 -3,6 z"></path></g></svg>