<svg fill="#C82606" xmlns="http://www.w3.org/2000/svg" xmlns:xlink="http://www.w3.org/1999/xlink" version="1.1" x="0px" y="0px" viewBox="0 0 100 100" enable-background="new 0 0 100 100" xml:space="preserve"><path d="M63,45.015c0-1.534-4.16-4.219-5.72-9.333c-1.104-3.617-1.231-15.736-1.211-24.545H43.932l0,0  c0.02,8.809-0.108,20.929-1.212,24.545C41.16,40.796,37,43.48,37,45.015c0,0.954,0,46.456,0,46.456c0,0.119,0.006,0.237,0.01,0.355  c0,0-0.194,3.174,1.926,3.174c2.121,0,20.008,0,22.129,0c2.12,0,1.927-3.174,1.927-3.174l0,0C62.994,91.708,63,91.59,63,91.471  C63,91.471,63,45.968,63,45.015z"></path><path d="M56.026,9.603C55.783,5.363,54.55,5,54.55,5h-9.1c0,0-1.233,0.363-1.477,4.603H56.026z"></path></svg>