<svg fill="#C82606" xmlns="http://www.w3.org/2000/svg" xmlns:xlink="http://www.w3.org/1999/xlink" version="1.1" x="0px" y="0px" viewBox="0 0 100 100" style="enable-background:new 0 0 100 100;" xml:space="preserve"><style type="text/css">
	.st0{fill:none;stroke:#C82606;stroke-width:6;stroke-miterlimit:10;}
	.st1{fill:none;stroke:#C82606;stroke-width:3;stroke-miterlimit:10;}
</style><path d="M50,10.3c-14.1,0-25.5,11.4-25.5,25.6c0,3.7,0.8,7.1,2.1,10.3l22,42.7c0.6,1.2,2.2,1.2,2.8,0l22-42.7  c1.4-3.1,2.1-6.6,2.1-10.3C75.5,21.7,64.1,10.3,50,10.3z M50,56.4c-11.4,0-20.7-9.3-20.7-20.7C29.3,24.3,38.6,15,50,15  c11.4,0,20.7,9.3,20.7,20.7C70.7,47.1,61.4,56.4,50,56.4z"></path></svg>