<svg fill="#C82606" xmlns="http://www.w3.org/2000/svg" xmlns:xlink="http://www.w3.org/1999/xlink" version="1.1" x="0px" y="0px" viewBox="0 0 100 100" enable-background="new 0 0 100 100" xml:space="preserve"><g><path d="M66.697,11.173c-2.022-2.773-5.895-3.41-8.668-1.387c-0.213,0.135-0.405,0.29-0.578,0.463   c-3.718,3.429-9.458,3.429-13.195,0c-2.543-2.331-6.453-2.177-8.784,0.366c-0.173,0.173-0.327,0.366-0.462,0.558   c-4.643,6.414-7.937,13.716-9.651,21.44c11.731,4.777,24.58,6.146,37.081,3.987l-2.716-11.153l11.366,0.289l1.83,8.167   c1.155-0.404,2.292-0.829,3.409-1.291C74.614,24.889,71.34,17.587,66.697,11.173z"></path></g><g><path d="M11.277,39.605l14.004-2.041c16.393,6.683,34.731,6.683,51.125,0l14.023,2.041c0.578,0.078,1.098,0.444,1.367,0.964   c0.501,0.925,0.135,2.042-0.771,2.523c-25.601,11.27-54.746,11.27-80.346,0c-0.52-0.29-0.886-0.789-0.963-1.387   C9.544,40.684,10.256,39.74,11.277,39.605z"></path></g><g><path d="M20.292,49.661c1.445,0.443,2.909,0.847,4.373,1.232c-2.293,4.701-0.616,10.346,3.872,13.003   c2.312,10.923,10.056,19.88,20.534,23.733c1.232,0.461,2.601,0.461,3.833,0c10.479-3.854,18.224-12.811,20.535-23.733   c4.507-2.677,6.184-8.379,3.833-13.06c1.465-0.386,2.929-0.81,4.373-1.251c2.581,5.971,0.848,12.945-4.218,17.027   c-3.083,11.636-11.655,21.074-22.963,25.255c-2.234,0.828-4.719,0.828-6.954,0C36.204,87.686,27.632,78.247,24.55,66.611   C19.503,62.529,17.769,55.613,20.292,49.661z"></path></g><g><path d="M30.733,52.318c-2.523,4.297-1.079,9.825,3.217,12.349c3.871,2.272,8.822,1.349,11.615-2.177l3.159-3.949   c0.116-0.154,0.251-0.289,0.423-0.424c1.176-0.925,2.871-0.731,3.795,0.424l3.14,3.949c3.102,3.91,8.784,4.546,12.676,1.444   c3.524-2.792,4.449-7.724,2.177-11.616C57.663,54.979,44.006,54.979,30.733,52.318z"></path></g></svg>