<svg fill="#C82606" xmlns="http://www.w3.org/2000/svg" xmlns:xlink="http://www.w3.org/1999/xlink" version="1.1" x="0px" y="0px" viewBox="0 0 20 20" enable-background="new 0 0 20 20" xml:space="preserve"><path fill="#C82606" d="M19.6,3.5H4V2.9c0-0.2-0.2-0.4-0.4-0.4H2.4C2.2,2.5,2,2.7,2,2.9v0.6H1c-0.6,0-1,0.4-1,1v3c0,0.6,0.4,1,1,1  h0.7L0,16.3c-0.1,0.6,0.3,1.2,1,1.2h1.9c0.5,0,0.9-0.3,1-0.8l0.9-4.2H9c0.4,0,0.7-0.2,0.9-0.6l1.2-3.4H15c1.1,0,2-0.9,2-2h2.6  c0.2,0,0.4-0.2,0.4-0.4V3.9C20,3.7,19.8,3.5,19.6,3.5z M8.9,11.5H5l0.6-3h1.7C6.9,9.3,7,10.4,7,10.5c0,0.3,0.2,0.4,0.5,0.4  c0,0,0,0,0.1,0c0.3,0,0.5-0.3,0.4-0.5c0,0-0.1-1.5,0.7-1.8c0,0,0.1,0,0.1-0.1h1.1L8.9,11.5z"></path></svg>